<svg width="56" height="37" viewBox="0 0 56 37" fill="none" xmlns="http://www.w3.org/2000/svg">
<path d="M2.96175 2.91798C2.96175 1.30642 4.26818 0 5.87973 0H52.31C53.9215 0 55.2279 1.30642 55.2279 2.91798V26.5434C55.2279 28.1549 53.9215 29.4614 52.31 29.4614H12.2883C11.7164 29.4614 11.1571 29.6294 10.6799 29.9447L6.37613 32.7878C4.40644 34.089 1.93114 32.0846 2.79437 29.8874V29.8874C2.90497 29.6059 2.96175 29.3061 2.96175 29.0036V2.91798Z" fill="white"/>
<path d="M14.6912 14.5551C14.6912 13.7287 15.3611 13.0588 16.1875 13.0588H43.9375C44.7639 13.0588 45.4338 13.7287 45.4338 14.5551V14.5551C45.4338 15.3815 44.7639 16.0515 43.9375 16.0515H16.1875C15.3611 16.0515 14.6912 15.3815 14.6912 14.5551V14.5551Z" fill="#C25CE4" fill-opacity="0.13"/>
<path d="M14.6912 21.0845C14.6912 20.2582 15.3611 19.5882 16.1875 19.5882H43.9375C44.7639 19.5882 45.4338 20.2582 45.4338 21.0845V21.0845C45.4338 21.9109 44.7639 22.5809 43.9375 22.5809H16.1875C15.3611 22.5809 14.6912 21.9109 14.6912 21.0845V21.0845Z" fill="#C25CE4" fill-opacity="0.13"/>
<path d="M14.6912 8.16177C14.6912 7.26025 15.422 6.52942 16.3235 6.52942H43.8015C44.703 6.52942 45.4338 7.26025 45.4338 8.16177V8.16177C45.4338 9.06329 44.703 9.79412 43.8015 9.79412H16.3235C15.422 9.79412 14.6912 9.06329 14.6912 8.16177V8.16177Z" fill="#C25CE4" fill-opacity="0.13"/>
<circle cx="48.0183" cy="21.0845" r="1.49632" fill="#C25CE4" fill-opacity="0.13"/>
<path d="M27.6766 23.0161C26.6459 23.0161 25.731 22.8443 24.9317 22.5008C24.1394 22.1502 23.5119 21.6244 23.0492 20.9232C22.5934 20.2151 22.3656 19.3282 22.3656 18.2625C22.3656 17.365 22.5233 16.6078 22.8388 15.9909C23.1543 15.3739 23.589 14.8726 24.1429 14.4869C24.6968 14.1013 25.3348 13.8104 26.057 13.6141C26.7791 13.4107 27.5504 13.274 28.3707 13.2039C29.2891 13.1198 30.0288 13.0321 30.5897 12.941C31.1506 12.8428 31.5573 12.7061 31.8097 12.5308C32.0691 12.3485 32.1988 12.0926 32.1988 11.7631V11.7105C32.1988 11.1706 32.013 10.7535 31.6414 10.459C31.2698 10.1645 30.7685 10.0173 30.1375 10.0173C29.4574 10.0173 28.9105 10.1645 28.4969 10.459C28.0832 10.7535 27.8203 11.1601 27.7081 11.679L22.965 11.5107C23.1053 10.5291 23.4663 9.65272 24.0483 8.88149C24.6372 8.10324 25.4435 7.49327 26.4671 7.05156C27.4978 6.60285 28.7353 6.37849 30.1796 6.37849C31.2102 6.37849 32.1602 6.50118 33.0296 6.74658C33.899 6.98496 34.6562 7.33552 35.3012 7.79826C35.9463 8.25399 36.4441 8.81488 36.7946 9.48095C37.1522 10.147 37.331 10.9077 37.331 11.7631V22.7426H32.4933V20.492H32.3671C32.0796 21.0389 31.7115 21.5017 31.2628 21.8803C30.8211 22.2589 30.2988 22.5428 29.6958 22.7321C29.0998 22.9214 28.4268 23.0161 27.6766 23.0161ZM29.2646 19.6507C29.8185 19.6507 30.3163 19.5385 30.758 19.3142C31.2067 19.0898 31.5643 18.7813 31.8307 18.3887C32.0971 17.989 32.2303 17.5263 32.2303 17.0005V15.465C32.0831 15.5421 31.9043 15.6122 31.694 15.6753C31.4907 15.7384 31.2663 15.798 31.0209 15.8541C30.7755 15.9102 30.5231 15.9593 30.2637 16.0014C30.0043 16.0434 29.7554 16.082 29.517 16.1171C29.0332 16.1942 28.6196 16.3134 28.276 16.4746C27.9395 16.6359 27.6801 16.8462 27.4978 17.1056C27.3225 17.358 27.2349 17.6595 27.2349 18.0101C27.2349 18.5429 27.4242 18.9496 27.8028 19.23C28.1884 19.5105 28.6757 19.6507 29.2646 19.6507Z" fill="#C25CE4"/>
</svg>
