<svg width="375" height="667" viewBox="0 0 375 667" fill="none" xmlns="http://www.w3.org/2000/svg">
<g clip-path="url(#clip0_66_186)">
<rect width="375" height="667" fill="url(#paint0_linear_66_186)"/>
<g opacity="0.45" clip-path="url(#clip1_66_186)">
<path d="M350.59 39.5986C347.37 34.0222 349.281 26.8918 354.857 23.6723L413.063 -9.93267C418.639 -13.1522 425.77 -11.2416 428.989 -5.66523L442.864 18.3663C446.083 23.9426 444.173 31.073 438.596 34.2925L384.75 65.3806C383.588 66.0516 382.649 67.0494 382.05 68.2499L378.301 75.7578C376.474 79.4182 371.021 78.5564 370.412 74.5108C370.334 73.9928 370.159 73.4941 369.898 73.0404L350.59 39.5986Z" fill="white" fill-opacity="0.2"/>
<path d="M374.969 41.1928C374.253 39.9523 374.678 38.3661 375.918 37.6498L417.54 13.6196C418.781 12.9034 420.367 13.3284 421.083 14.569C421.799 15.8095 421.374 17.3957 420.134 18.112L378.512 42.1422C377.272 42.8584 375.685 42.4334 374.969 41.1928Z" fill="#C25CE4" fill-opacity="0.4"/>
<path d="M369.428 31.5956C368.647 30.2423 369.11 28.5118 370.464 27.7305L411.677 3.93604C413.03 3.15471 414.761 3.61838 415.542 4.97168C416.323 6.32499 415.86 8.05545 414.506 8.83677L373.293 32.6312C371.94 33.4125 370.209 32.9489 369.428 31.5956Z" fill="#C25CE4" fill-opacity="0.4"/>
<path d="M312.544 -26.2983C309.325 -31.8747 311.235 -39.0051 316.812 -42.2246L375.017 -75.8296C380.594 -79.0491 387.724 -77.1385 390.943 -71.5621L404.818 -47.5307C408.038 -41.9543 406.127 -34.8239 400.551 -31.6044L346.704 -0.516267C345.542 0.154651 344.603 1.15245 344.004 2.35298L340.256 9.86092C338.428 13.5213 332.976 12.6595 332.366 8.61388C332.288 8.0959 332.114 7.59715 331.852 7.1435L312.544 -26.2983Z" fill="white" fill-opacity="0.2"/>
<path d="M24.9394 666.926C21.7199 661.349 23.6305 654.219 29.2068 650.999L87.4123 617.394C92.9887 614.175 100.119 616.086 103.339 621.662L117.213 645.693C120.433 651.27 118.522 658.4 112.946 661.62L59.0996 692.708C57.9375 693.379 56.9984 694.376 56.399 695.577L52.6507 703.085C50.8233 706.745 45.3709 705.883 44.7615 701.838C44.6835 701.32 44.509 700.821 44.2471 700.368L24.9394 666.926Z" fill="white" fill-opacity="0.2"/>
<path d="M49.3186 668.52C48.6023 667.279 49.0274 665.693 50.2679 664.977L91.8895 640.947C93.13 640.231 94.7163 640.656 95.4325 641.896C96.1487 643.137 95.7237 644.723 94.4831 645.439L52.8616 669.469C51.621 670.186 50.0348 669.76 49.3186 668.52Z" fill="#C25CE4" fill-opacity="0.4"/>
<path d="M54.9776 678.321C54.2614 677.081 54.6864 675.495 55.927 674.778L97.5485 650.748C98.7891 650.032 100.375 650.457 101.092 651.698C101.808 652.938 101.383 654.524 100.142 655.241L58.5206 679.271C57.2801 679.987 55.6938 679.562 54.9776 678.321Z" fill="#C25CE4" fill-opacity="0.4"/>
<path d="M43.7776 658.923C42.9963 657.569 43.46 655.839 44.8133 655.058L86.0265 631.263C87.3798 630.482 89.1102 630.946 89.8916 632.299C90.6729 633.652 90.2092 635.383 88.8559 636.164L47.6427 659.958C46.2894 660.74 44.559 660.276 43.7776 658.923Z" fill="#C25CE4" fill-opacity="0.4"/>
<ellipse cx="104.968" cy="649.459" rx="2.5917" ry="2.59366" transform="rotate(-30 104.968 649.459)" fill="#C25CE4" fill-opacity="0.4"/>
<path d="M-13.1062 601.029C-16.3257 595.452 -14.4151 588.322 -8.83875 585.103L49.3667 551.498C54.9431 548.278 62.0735 550.189 65.293 555.765L79.1676 579.796C82.3871 585.373 80.4765 592.503 74.9002 595.723L21.054 626.811C19.8919 627.482 18.9528 628.48 18.3534 629.68L14.6051 637.188C12.7777 640.848 7.32528 639.987 6.7159 635.941C6.63788 635.423 6.46339 634.924 6.20147 634.471L-13.1062 601.029Z" fill="white" fill-opacity="0.2"/>
<path d="M11.273 602.623C10.5567 601.383 10.9818 599.796 12.2223 599.08L53.8439 575.05C55.0844 574.334 56.6707 574.759 57.3869 575.999C58.1031 577.24 57.6781 578.826 56.4375 579.542L14.816 603.572C13.5754 604.289 11.9892 603.864 11.273 602.623Z" fill="#C25CE4" fill-opacity="0.4"/>
<path d="M16.932 612.425C16.2158 611.184 16.6408 609.598 17.8814 608.882L59.5029 584.851C60.7435 584.135 62.3297 584.56 63.0459 585.801C63.7622 587.041 63.3371 588.627 62.0966 589.344L20.475 613.374C19.2345 614.09 17.6482 613.665 16.932 612.425Z" fill="#C25CE4" fill-opacity="0.4"/>
<path d="M5.73204 593.026C4.95071 591.673 5.41439 589.942 6.76769 589.161L47.9809 565.366C49.3342 564.585 51.0646 565.049 51.846 566.402C52.6273 567.755 52.1636 569.486 50.8103 570.267L9.59713 594.061C8.24383 594.843 6.51337 594.379 5.73204 593.026Z" fill="#C25CE4" fill-opacity="0.4"/>
<ellipse cx="66.9228" cy="583.562" rx="2.5917" ry="2.59366" transform="rotate(-30 66.9228 583.562)" fill="#C25CE4" fill-opacity="0.4"/>
<path d="M-51.1518 535.132C-54.3713 529.556 -52.4607 522.425 -46.8843 519.206L11.3211 485.601C16.8975 482.381 24.0279 484.292 27.2474 489.868L41.122 513.9C44.3415 519.476 42.4309 526.606 36.8546 529.826L-16.9916 560.914C-18.1536 561.585 -19.0928 562.583 -19.6922 563.783L-23.4405 571.291C-25.2679 574.952 -30.7203 574.09 -31.3297 570.044C-31.4077 569.526 -31.5822 569.027 -31.8441 568.574L-51.1518 535.132Z" fill="white" fill-opacity="0.2"/>
<path d="M-26.7726 536.726C-27.4888 535.486 -27.0638 533.899 -25.8233 533.183L15.7983 509.153C17.0388 508.437 18.6251 508.862 19.3413 510.102C20.0575 511.343 19.6325 512.929 18.392 513.645L-23.2296 537.675C-24.4702 538.392 -26.0564 537.967 -26.7726 536.726Z" fill="#C25CE4" fill-opacity="0.4"/>
<path d="M-21.1136 546.528C-21.8298 545.287 -21.4048 543.701 -20.1642 542.985L21.4574 518.954C22.6979 518.238 24.2841 518.663 25.0004 519.904C25.7166 521.144 25.2915 522.731 24.051 523.447L-17.5706 547.477C-18.8111 548.193 -20.3974 547.768 -21.1136 546.528Z" fill="#C25CE4" fill-opacity="0.4"/>
<path d="M-32.3136 527.129C-33.0949 525.776 -32.6312 524.045 -31.2779 523.264L9.93529 499.469C11.2886 498.688 13.019 499.152 13.8004 500.505C14.5817 501.858 14.118 503.589 12.7647 504.37L-28.4485 528.165C-29.8018 528.946 -31.5322 528.482 -32.3136 527.129Z" fill="#C25CE4" fill-opacity="0.4"/>
<ellipse cx="28.8772" cy="517.665" rx="2.5917" ry="2.59366" transform="rotate(-30 28.8772 517.665)" fill="#C25CE4" fill-opacity="0.4"/>
<path d="M-89.1974 469.235C-92.4169 463.659 -90.5063 456.528 -84.9299 453.309L-26.7245 419.704C-21.1481 416.484 -14.0177 418.395 -10.7982 423.971L3.07642 448.003C6.29592 453.579 4.38533 460.709 -1.19101 463.929L-55.0372 495.017C-56.1992 495.688 -57.1384 496.686 -57.7377 497.886L-61.4861 505.394C-63.3135 509.055 -68.7659 508.193 -69.3753 504.147C-69.4533 503.629 -69.6278 503.13 -69.8897 502.677L-89.1974 469.235Z" fill="white" fill-opacity="0.2"/>
<path d="M15.6181 57.2696C12.3986 51.6932 14.3092 44.5628 19.8856 41.3433L78.091 7.73832C83.6674 4.51881 90.7978 6.42941 94.0173 12.0058L107.892 36.0372C111.111 41.6136 109.201 48.744 103.624 51.9635L49.7783 83.0516C48.6162 83.7226 47.6771 84.7204 47.0777 85.9209L43.3294 93.4288C41.502 97.0892 36.0496 96.2274 35.4402 92.1818C35.3622 91.6638 35.1877 91.165 34.9258 90.7114L15.6181 57.2696Z" fill="white" fill-opacity="0.2"/>
<path d="M39.9973 58.8638C39.281 57.6233 39.7061 56.0371 40.9466 55.3208L82.5682 31.2906C83.8087 30.5744 85.395 30.9994 86.1112 32.24C86.8274 33.4805 86.4024 35.0667 85.1618 35.783L43.5403 59.8132C42.2997 60.5294 40.7135 60.1044 39.9973 58.8638Z" fill="#C25CE4" fill-opacity="0.4"/>
<path d="M45.6563 68.6653C44.9401 67.4248 45.3651 65.8385 46.6057 65.1223L88.2273 41.0921C89.4678 40.3759 91.054 40.8009 91.7702 42.0414C92.4865 43.282 92.0614 44.8682 90.8209 45.5844L49.1993 69.6147C47.9588 70.3309 46.3725 69.9058 45.6563 68.6653Z" fill="#C25CE4" fill-opacity="0.4"/>
<path d="M34.4563 49.2666C33.675 47.9133 34.1387 46.1828 35.492 45.4015L76.7052 21.607C78.0585 20.8257 79.7889 21.2894 80.5703 22.6427C81.3516 23.996 80.8879 25.7264 79.5346 26.5078L38.3214 50.3022C36.9681 51.0835 35.2377 50.6199 34.4563 49.2666Z" fill="#C25CE4" fill-opacity="0.4"/>
<ellipse cx="95.647" cy="39.8031" rx="2.5917" ry="2.59366" transform="rotate(-30 95.647 39.8031)" fill="#C25CE4" fill-opacity="0.4"/>
<path d="M319.983 584.445C316.763 578.868 318.674 571.738 324.25 568.518L382.456 534.914C388.032 531.694 395.163 533.605 398.382 539.181L412.257 563.212C415.476 568.789 413.566 575.919 407.989 579.139L354.143 610.227C352.981 610.898 352.042 611.896 351.443 613.096L347.694 620.604C345.867 624.264 340.414 623.403 339.805 619.357C339.727 618.839 339.553 618.34 339.291 617.887L319.983 584.445Z" fill="white" fill-opacity="0.2"/>
<path d="M344.362 586.039C343.646 584.799 344.071 583.212 345.311 582.496L386.933 558.466C388.174 557.75 389.76 558.175 390.476 559.415C391.192 560.656 390.767 562.242 389.527 562.958L347.905 586.988C346.665 587.705 345.078 587.28 344.362 586.039Z" fill="#C25CE4" fill-opacity="0.4"/>
<path d="M350.021 595.841C349.305 594.6 349.73 593.014 350.971 592.298L392.592 568.267C393.833 567.551 395.419 567.976 396.135 569.217C396.851 570.457 396.426 572.043 395.186 572.76L353.564 596.79C352.324 597.506 350.737 597.081 350.021 595.841Z" fill="#C25CE4" fill-opacity="0.4"/>
<path d="M338.821 576.442C338.04 575.088 338.504 573.358 339.857 572.577L381.07 548.782C382.423 548.001 384.154 548.465 384.935 549.818C385.716 551.171 385.253 552.902 383.899 553.683L342.686 577.477C341.333 578.259 339.603 577.795 338.821 576.442Z" fill="#C25CE4" fill-opacity="0.4"/>
<path d="M281.937 518.548C278.718 512.972 280.628 505.841 286.205 502.622L344.41 469.017C349.987 465.797 357.117 467.708 360.337 473.284L374.211 497.316C377.431 502.892 375.52 510.022 369.944 513.242L316.098 544.33C314.936 545.001 313.996 545.999 313.397 547.199L309.649 554.707C307.821 558.368 302.369 557.506 301.759 553.46C301.681 552.942 301.507 552.443 301.245 551.99L281.937 518.548Z" fill="white" fill-opacity="0.2"/>
<path d="M306.317 520.142C305.6 518.902 306.025 517.315 307.266 516.599L348.888 492.569C350.128 491.853 351.714 492.278 352.431 493.518C353.147 494.759 352.722 496.345 351.481 497.061L309.86 521.091C308.619 521.808 307.033 521.383 306.317 520.142Z" fill="#C25CE4" fill-opacity="0.4"/>
<path d="M311.976 529.944C311.259 528.703 311.684 527.117 312.925 526.401L354.547 502.37C355.787 501.654 357.373 502.079 358.09 503.32C358.806 504.56 358.381 506.147 357.14 506.863L315.519 530.893C314.278 531.609 312.692 531.184 311.976 529.944Z" fill="#C25CE4" fill-opacity="0.4"/>
<path d="M300.776 510.545C299.994 509.192 300.458 507.461 301.811 506.68L343.024 482.885C344.378 482.104 346.108 482.568 346.89 483.921C347.671 485.274 347.207 487.005 345.854 487.786L304.641 511.58C303.287 512.362 301.557 511.898 300.776 510.545Z" fill="#C25CE4" fill-opacity="0.4"/>
<ellipse cx="361.966" cy="501.081" rx="2.5917" ry="2.59366" transform="rotate(-30 361.966 501.081)" fill="#C25CE4" fill-opacity="0.4"/>
<path d="M243.892 452.651C240.672 447.075 242.583 439.944 248.159 436.725L306.365 403.12C311.941 399.9 319.071 401.811 322.291 407.387L336.166 431.419C339.385 436.995 337.474 444.125 331.898 447.345L278.052 478.433C276.89 479.104 275.951 480.102 275.351 481.302L271.603 488.81C269.776 492.471 264.323 491.609 263.714 487.563C263.636 487.045 263.461 486.546 263.199 486.093L243.892 452.651Z" fill="white" fill-opacity="0.2"/>
<path d="M268.271 454.245C267.555 453.005 267.98 451.418 269.22 450.702L310.842 426.672C312.082 425.956 313.669 426.381 314.385 427.621C315.101 428.862 314.676 430.448 313.436 431.164L271.814 455.195C270.573 455.911 268.987 455.486 268.271 454.245Z" fill="#C25CE4" fill-opacity="0.4"/>
<path d="M273.93 464.047C273.214 462.806 273.639 461.22 274.879 460.504L316.501 436.473C317.741 435.757 319.328 436.182 320.044 437.423C320.76 438.663 320.335 440.25 319.095 440.966L277.473 464.996C276.232 465.712 274.646 465.287 273.93 464.047Z" fill="#C25CE4" fill-opacity="0.4"/>
<path d="M262.73 444.648C261.949 443.295 262.412 441.564 263.766 440.783L304.979 416.988C306.332 416.207 308.063 416.671 308.844 418.024C309.625 419.377 309.162 421.108 307.808 421.889L266.595 445.684C265.242 446.465 263.511 446.001 262.73 444.648Z" fill="#C25CE4" fill-opacity="0.4"/>
<ellipse cx="323.921" cy="435.185" rx="2.5917" ry="2.59366" transform="rotate(-30 323.921 435.185)" fill="#C25CE4" fill-opacity="0.4"/>
<path d="M205.846 386.754C202.627 381.178 204.537 374.047 210.114 370.828L268.319 337.223C273.895 334.003 281.026 335.914 284.245 341.49L298.12 365.522C301.34 371.098 299.429 378.229 293.853 381.448L240.006 412.536C238.844 413.207 237.905 414.205 237.306 415.405L233.558 422.913C231.73 426.574 226.278 425.712 225.668 421.666C225.59 421.148 225.416 420.65 225.154 420.196L205.846 386.754Z" fill="white" fill-opacity="0.2"/>
<path d="M230.225 388.348C229.509 387.108 229.934 385.522 231.175 384.805L272.796 360.775C274.037 360.059 275.623 360.484 276.339 361.724C277.055 362.965 276.63 364.551 275.39 365.267L233.768 389.298C232.528 390.014 230.942 389.589 230.225 388.348Z" fill="#C25CE4" fill-opacity="0.4"/>
<path d="M235.884 398.15C235.168 396.909 235.593 395.323 236.834 394.607L278.455 370.577C279.696 369.86 281.282 370.285 281.998 371.526C282.715 372.766 282.29 374.353 281.049 375.069L239.427 399.099C238.187 399.815 236.601 399.39 235.884 398.15Z" fill="#C25CE4" fill-opacity="0.4"/>
<path d="M224.684 378.751C223.903 377.398 224.367 375.667 225.72 374.886L266.933 351.091C268.287 350.31 270.017 350.774 270.798 352.127C271.58 353.48 271.116 355.211 269.763 355.992L228.55 379.787C227.196 380.568 225.466 380.104 224.684 378.751Z" fill="#C25CE4" fill-opacity="0.4"/>
<ellipse cx="285.875" cy="369.288" rx="2.5917" ry="2.59366" transform="rotate(-30 285.875 369.288)" fill="#C25CE4" fill-opacity="0.4"/>
<path d="M167.801 320.857C164.581 315.281 166.492 308.15 172.068 304.931L230.274 271.326C235.85 268.106 242.98 270.017 246.2 275.593L260.074 299.625C263.294 305.201 261.383 312.332 255.807 315.551L201.961 346.639C200.799 347.31 199.86 348.308 199.26 349.508L195.512 357.016C193.684 360.677 188.232 359.815 187.623 355.769C187.545 355.251 187.37 354.753 187.108 354.299L167.801 320.857Z" fill="white" fill-opacity="0.2"/>
<path d="M192.18 322.451C191.464 321.211 191.889 319.625 193.129 318.908L234.751 294.878C235.991 294.162 237.577 294.587 238.294 295.828C239.01 297.068 238.585 298.654 237.344 299.371L195.723 323.401C194.482 324.117 192.896 323.692 192.18 322.451Z" fill="#C25CE4" fill-opacity="0.4"/>
<path d="M197.839 332.253C197.123 331.012 197.548 329.426 198.788 328.71L240.41 304.68C241.65 303.963 243.237 304.388 243.953 305.629C244.669 306.87 244.244 308.456 243.003 309.172L201.382 333.202C200.141 333.918 198.555 333.493 197.839 332.253Z" fill="#C25CE4" fill-opacity="0.4"/>
<path d="M186.639 312.854C185.858 311.501 186.321 309.77 187.674 308.989L228.888 285.195C230.241 284.413 231.971 284.877 232.753 286.23C233.534 287.584 233.07 289.314 231.717 290.095L190.504 313.89C189.151 314.671 187.42 314.207 186.639 312.854Z" fill="#C25CE4" fill-opacity="0.4"/>
<ellipse cx="247.83" cy="303.391" rx="2.5917" ry="2.59366" transform="rotate(-30 247.83 303.391)" fill="#C25CE4" fill-opacity="0.4"/>
<path d="M129.755 254.96C126.536 249.384 128.446 242.253 134.022 239.034L192.228 205.429C197.804 202.209 204.935 204.12 208.154 209.696L222.029 233.728C225.248 239.304 223.338 246.435 217.761 249.654L163.915 280.742C162.753 281.413 161.814 282.411 161.215 283.612L157.466 291.119C155.639 294.78 150.186 293.918 149.577 289.872C149.499 289.354 149.325 288.856 149.063 288.402L129.755 254.96Z" fill="white" fill-opacity="0.2"/>
<path d="M154.134 256.555C153.418 255.314 153.843 253.728 155.084 253.012L196.705 228.981C197.946 228.265 199.532 228.69 200.248 229.931C200.964 231.171 200.539 232.757 199.299 233.474L157.677 257.504C156.437 258.22 154.85 257.795 154.134 256.555Z" fill="#C25CE4" fill-opacity="0.4"/>
<path d="M159.793 266.356C159.077 265.115 159.502 263.529 160.743 262.813L202.364 238.783C203.605 238.067 205.191 238.492 205.907 239.732C206.623 240.973 206.198 242.559 204.958 243.275L163.336 267.305C162.096 268.022 160.509 267.597 159.793 266.356Z" fill="#C25CE4" fill-opacity="0.4"/>
<path d="M148.593 246.957C147.812 245.604 148.276 243.873 149.629 243.092L190.842 219.298C192.195 218.516 193.926 218.98 194.707 220.333C195.489 221.687 195.025 223.417 193.672 224.198L152.458 247.993C151.105 248.774 149.375 248.311 148.593 246.957Z" fill="#C25CE4" fill-opacity="0.4"/>
<ellipse cx="209.784" cy="237.494" rx="2.5917" ry="2.59366" transform="rotate(-30 209.784 237.494)" fill="#C25CE4" fill-opacity="0.4"/>
<path d="M91.7094 189.063C88.4899 183.487 90.4005 176.357 95.9769 173.137L154.182 139.532C159.759 136.313 166.889 138.223 170.109 143.8L183.983 167.831C187.203 173.407 185.292 180.538 179.716 183.757L125.87 214.845C124.708 215.516 123.768 216.514 123.169 217.715L119.421 225.223C117.593 228.883 112.141 228.021 111.532 223.976C111.453 223.458 111.279 222.959 111.017 222.505L91.7094 189.063Z" fill="white" fill-opacity="0.2"/>
<path d="M116.089 190.658C115.372 189.417 115.797 187.831 117.038 187.115L158.66 163.084C159.9 162.368 161.486 162.793 162.203 164.034C162.919 165.274 162.494 166.86 161.253 167.577L119.632 191.607C118.391 192.323 116.805 191.898 116.089 190.658Z" fill="#C25CE4" fill-opacity="0.4"/>
<path d="M121.748 200.459C121.031 199.219 121.456 197.632 122.697 196.916L164.319 172.886C165.559 172.17 167.145 172.595 167.862 173.835C168.578 175.076 168.153 176.662 166.912 177.378L125.291 201.408C124.05 202.125 122.464 201.7 121.748 200.459Z" fill="#C25CE4" fill-opacity="0.4"/>
<path d="M110.548 181.06C109.766 179.707 110.23 177.977 111.583 177.195L152.796 153.401C154.15 152.619 155.88 153.083 156.662 154.436C157.443 155.79 156.979 157.52 155.626 158.302L114.413 182.096C113.059 182.877 111.329 182.414 110.548 181.06Z" fill="#C25CE4" fill-opacity="0.4"/>
<ellipse cx="171.738" cy="171.597" rx="2.5917" ry="2.59366" transform="rotate(-30 171.738 171.597)" fill="#C25CE4" fill-opacity="0.4"/>
<path d="M53.6638 123.166C50.4443 117.59 52.3549 110.46 57.9313 107.24L116.137 73.6352C121.713 70.4157 128.844 72.3263 132.063 77.9026L145.938 101.934C149.157 107.51 147.247 114.641 141.67 117.86L87.824 148.948C86.662 149.619 85.7228 150.617 85.1235 151.818L81.3751 159.326C79.5477 162.986 74.0953 162.124 73.4859 158.079C73.4079 157.561 73.2334 157.062 72.9715 156.608L53.6638 123.166Z" fill="white" fill-opacity="0.2"/>
<path d="M78.043 124.761C77.3268 123.52 77.7518 121.934 78.9923 121.218L120.614 97.1875C121.854 96.4712 123.441 96.8963 124.157 98.1368C124.873 99.3773 124.448 100.964 123.208 101.68L81.586 125.71C80.3455 126.426 78.7592 126.001 78.043 124.761Z" fill="#C25CE4" fill-opacity="0.4"/>
<path d="M83.702 134.562C82.9858 133.322 83.4109 131.735 84.6514 131.019L126.273 106.989C127.513 106.273 129.1 106.698 129.816 107.938C130.532 109.179 130.107 110.765 128.867 111.481L87.245 135.512C86.0045 136.228 84.4183 135.803 83.702 134.562Z" fill="#C25CE4" fill-opacity="0.4"/>
<path d="M72.5021 115.163C71.7207 113.81 72.1844 112.08 73.5377 111.298L114.751 87.5039C116.104 86.7225 117.835 87.1862 118.616 88.5395C119.397 89.8928 118.934 91.6233 117.58 92.4046L76.3671 116.199C75.0138 116.98 73.2834 116.517 72.5021 115.163Z" fill="#C25CE4" fill-opacity="0.4"/>
<ellipse cx="133.693" cy="105.7" rx="2.5917" ry="2.59366" transform="rotate(-30 133.693 105.7)" fill="#C25CE4" fill-opacity="0.4"/>
<path d="M191.955 658.362C188.735 652.786 190.646 645.655 196.222 642.436L254.428 608.831C260.004 605.611 267.134 607.522 270.354 613.098L284.228 637.13C287.448 642.706 285.537 649.836 279.961 653.056L226.115 684.144C224.953 684.815 224.014 685.813 223.414 687.013L219.666 694.521C217.839 698.182 212.386 697.32 211.777 693.274C211.699 692.756 211.524 692.257 211.262 691.804L191.955 658.362Z" fill="white" fill-opacity="0.2"/>
<path d="M216.334 659.956C215.618 658.716 216.043 657.129 217.283 656.413L258.905 632.383C260.145 631.667 261.732 632.092 262.448 633.332C263.164 634.573 262.739 636.159 261.498 636.875L219.877 660.906C218.636 661.622 217.05 661.197 216.334 659.956Z" fill="#C25CE4" fill-opacity="0.4"/>
<path d="M221.993 669.758C221.277 668.517 221.702 666.931 222.942 666.215L264.564 642.184C265.804 641.468 267.391 641.893 268.107 643.134C268.823 644.374 268.398 645.961 267.157 646.677L225.536 670.707C224.295 671.423 222.709 670.998 221.993 669.758Z" fill="#C25CE4" fill-opacity="0.4"/>
<path d="M210.793 650.359C210.012 649.006 210.475 647.275 211.829 646.494L253.042 622.699C254.395 621.918 256.125 622.382 256.907 623.735C257.688 625.088 257.224 626.819 255.871 627.6L214.658 651.395C213.305 652.176 211.574 651.712 210.793 650.359Z" fill="#C25CE4" fill-opacity="0.4"/>
<ellipse cx="271.984" cy="640.896" rx="2.5917" ry="2.59366" transform="rotate(-30 271.984 640.896)" fill="#C25CE4" fill-opacity="0.4"/>
<path d="M153.909 592.465C150.69 586.889 152.6 579.758 158.177 576.539L216.382 542.934C221.958 539.714 229.089 541.625 232.308 547.201L246.183 571.233C249.402 576.809 247.492 583.94 241.915 587.159L188.069 618.247C186.907 618.918 185.968 619.916 185.369 621.116L181.62 628.624C179.793 632.285 174.341 631.423 173.731 627.377C173.653 626.859 173.479 626.361 173.217 625.907L153.909 592.465Z" fill="white" fill-opacity="0.2"/>
<path d="M178.288 594.059C177.572 592.819 177.997 591.233 179.238 590.516L220.859 566.486C222.1 565.77 223.686 566.195 224.402 567.435C225.118 568.676 224.693 570.262 223.453 570.978L181.831 595.009C180.591 595.725 179.004 595.3 178.288 594.059Z" fill="#C25CE4" fill-opacity="0.4"/>
<path d="M183.947 603.861C183.231 602.62 183.656 601.034 184.897 600.318L226.518 576.288C227.759 575.571 229.345 575.996 230.061 577.237C230.777 578.477 230.352 580.064 229.112 580.78L187.49 604.81C186.25 605.526 184.663 605.101 183.947 603.861Z" fill="#C25CE4" fill-opacity="0.4"/>
<path d="M172.747 584.462C171.966 583.109 172.43 581.378 173.783 580.597L214.996 556.803C216.349 556.021 218.08 556.485 218.861 557.838C219.643 559.191 219.179 560.922 217.826 561.703L176.612 585.498C175.259 586.279 173.529 585.815 172.747 584.462Z" fill="#C25CE4" fill-opacity="0.4"/>
<ellipse cx="233.938" cy="574.999" rx="2.5917" ry="2.59366" transform="rotate(-30 233.938 574.999)" fill="#C25CE4" fill-opacity="0.4"/>
<path d="M115.863 526.568C112.644 520.992 114.555 513.861 120.131 510.642L178.336 477.037C183.913 473.817 191.043 475.728 194.263 481.304L208.137 505.336C211.357 510.912 209.446 518.043 203.87 521.262L150.024 552.35C148.862 553.021 147.922 554.019 147.323 555.219L143.575 562.727C141.747 566.388 136.295 565.526 135.686 561.48C135.608 560.962 135.433 560.464 135.171 560.01L115.863 526.568Z" fill="white" fill-opacity="0.2"/>
<path d="M140.243 528.162C139.526 526.922 139.951 525.336 141.192 524.619L182.814 500.589C184.054 499.873 185.64 500.298 186.357 501.539C187.073 502.779 186.648 504.365 185.407 505.082L143.786 529.112C142.545 529.828 140.959 529.403 140.243 528.162Z" fill="#C25CE4" fill-opacity="0.4"/>
<path d="M145.902 537.964C145.185 536.723 145.611 535.137 146.851 534.421L188.473 510.391C189.713 509.674 191.299 510.1 192.016 511.34C192.732 512.581 192.307 514.167 191.066 514.883L149.445 538.913C148.204 539.629 146.618 539.204 145.902 537.964Z" fill="#C25CE4" fill-opacity="0.4"/>
<path d="M134.702 518.565C133.92 517.212 134.384 515.481 135.737 514.7L176.951 490.906C178.304 490.124 180.034 490.588 180.816 491.941C181.597 493.295 181.133 495.025 179.78 495.806L138.567 519.601C137.213 520.382 135.483 519.918 134.702 518.565Z" fill="#C25CE4" fill-opacity="0.4"/>
<ellipse cx="195.892" cy="509.102" rx="2.5917" ry="2.59366" transform="rotate(-30 195.892 509.102)" fill="#C25CE4" fill-opacity="0.4"/>
<path d="M77.8178 460.671C74.5983 455.095 76.5089 447.964 82.0853 444.745L140.291 411.14C145.867 407.92 152.998 409.831 156.217 415.407L170.092 439.439C173.311 445.015 171.401 452.146 165.824 455.365L111.978 486.453C110.816 487.124 109.877 488.122 109.277 489.323L105.529 496.83C103.702 500.491 98.2493 499.629 97.6399 495.583C97.5619 495.065 97.3874 494.567 97.1255 494.113L77.8178 460.671Z" fill="white" fill-opacity="0.2"/>
<path d="M102.197 462.266C101.481 461.025 101.906 459.439 103.146 458.723L144.768 434.692C146.008 433.976 147.595 434.401 148.311 435.642C149.027 436.882 148.602 438.468 147.362 439.185L105.74 463.215C104.499 463.931 102.913 463.506 102.197 462.266Z" fill="#C25CE4" fill-opacity="0.4"/>
<path d="M107.856 472.067C107.14 470.826 107.565 469.24 108.805 468.524L150.427 444.494C151.667 443.778 153.254 444.203 153.97 445.443C154.686 446.684 154.261 448.27 153.021 448.986L111.399 473.016C110.159 473.733 108.572 473.307 107.856 472.067Z" fill="#C25CE4" fill-opacity="0.4"/>
<path d="M96.6561 452.668C95.8747 451.315 96.3384 449.584 97.6917 448.803L138.905 425.009C140.258 424.227 141.989 424.691 142.77 426.044C143.551 427.398 143.088 429.128 141.734 429.909L100.521 453.704C99.1678 454.485 97.4374 454.022 96.6561 452.668Z" fill="#C25CE4" fill-opacity="0.4"/>
<ellipse cx="157.847" cy="443.205" rx="2.5917" ry="2.59366" transform="rotate(-30 157.847 443.205)" fill="#C25CE4" fill-opacity="0.4"/>
<path d="M39.7722 394.774C36.5527 389.198 38.4633 382.068 44.0397 378.848L102.245 345.243C107.821 342.024 114.952 343.934 118.171 349.511L132.046 373.542C135.266 379.118 133.355 386.249 127.779 389.468L73.9324 420.556C72.7704 421.227 71.8312 422.225 71.2319 423.426L67.4835 430.934C65.6561 434.594 60.2037 433.732 59.5943 429.687C59.5163 429.169 59.3418 428.67 59.0799 428.216L39.7722 394.774Z" fill="white" fill-opacity="0.2"/>
<path d="M64.1514 396.369C63.4352 395.128 63.8602 393.542 65.1007 392.826L106.722 368.795C107.963 368.079 109.549 368.504 110.265 369.745C110.982 370.985 110.556 372.571 109.316 373.288L67.6944 397.318C66.4539 398.034 64.8676 397.609 64.1514 396.369Z" fill="#C25CE4" fill-opacity="0.4"/>
<path d="M69.8104 406.17C69.0942 404.93 69.5193 403.343 70.7598 402.627L112.381 378.597C113.622 377.881 115.208 378.306 115.924 379.546C116.641 380.787 116.216 382.373 114.975 383.089L73.3534 407.119C72.1129 407.836 70.5267 407.411 69.8104 406.17Z" fill="#C25CE4" fill-opacity="0.4"/>
<path d="M58.6105 386.771C57.8291 385.418 58.2928 383.688 59.6461 382.906L100.859 359.112C102.213 358.33 103.943 358.794 104.724 360.147C105.506 361.501 105.042 363.231 103.689 364.013L62.4755 387.807C61.1222 388.588 59.3918 388.125 58.6105 386.771Z" fill="#C25CE4" fill-opacity="0.4"/>
<ellipse cx="119.801" cy="377.308" rx="2.5917" ry="2.59366" transform="rotate(-30 119.801 377.308)" fill="#C25CE4" fill-opacity="0.4"/>
<path d="M1.72664 328.877C-1.49287 323.301 0.417732 316.171 5.99408 312.951L64.1995 279.346C69.7759 276.127 76.9063 278.037 80.1258 283.614L94.0004 307.645C97.2199 313.221 95.3093 320.352 89.733 323.571L35.8868 354.659C34.7248 355.33 33.7856 356.328 33.1863 357.529L29.4379 365.037C27.6105 368.697 22.1581 367.835 21.5487 363.79C21.4707 363.272 21.2962 362.773 21.0343 362.319L1.72664 328.877Z" fill="white" fill-opacity="0.2"/>
<path d="M26.1058 330.472C25.3896 329.231 25.8146 327.645 27.0551 326.929L68.6767 302.898C69.9172 302.182 71.5035 302.607 72.2197 303.848C72.9359 305.088 72.5109 306.675 71.2704 307.391L29.6488 331.421C28.4083 332.137 26.822 331.712 26.1058 330.472Z" fill="#C25CE4" fill-opacity="0.4"/>
<path d="M31.7648 340.273C31.0486 339.033 31.4737 337.446 32.7142 336.73L74.3358 312.7C75.5763 311.984 77.1625 312.409 77.8788 313.649C78.595 314.89 78.17 316.476 76.9294 317.192L35.3078 341.223C34.0673 341.939 32.4811 341.514 31.7648 340.273Z" fill="#C25CE4" fill-opacity="0.4"/>
<path d="M20.5649 320.874C19.7835 319.521 20.2472 317.791 21.6005 317.009L62.8137 293.215C64.167 292.434 65.8975 292.897 66.6788 294.251C67.4601 295.604 66.9964 297.334 65.6431 298.116L24.43 321.91C23.0767 322.691 21.3462 322.228 20.5649 320.874Z" fill="#C25CE4" fill-opacity="0.4"/>
<ellipse cx="81.7556" cy="311.411" rx="2.5917" ry="2.59366" transform="rotate(-30 81.7556 311.411)" fill="#C25CE4" fill-opacity="0.4"/>
<path d="M-36.319 262.981C-39.5385 257.404 -37.6279 250.274 -32.0515 247.054L26.154 213.449C31.7303 210.23 38.8607 212.14 42.0802 217.717L55.9548 241.748C59.1743 247.325 57.2637 254.455 51.6874 257.674L-2.15876 288.763C-3.32083 289.434 -4.25996 290.431 -4.85933 291.632L-8.60766 299.14C-10.4351 302.8 -15.8875 301.938 -16.4969 297.893C-16.5749 297.375 -16.7494 296.876 -17.0113 296.422L-36.319 262.981Z" fill="white" fill-opacity="0.2"/>
<path d="M-11.9398 264.575C-12.656 263.334 -12.231 261.748 -10.9905 261.032L30.6311 237.002C31.8716 236.285 33.4579 236.71 34.1741 237.951C34.8903 239.191 34.4653 240.778 33.2248 241.494L-8.39681 265.524C-9.63733 266.24 -11.2236 265.815 -11.9398 264.575Z" fill="#C25CE4" fill-opacity="0.4"/>
<path d="M-6.28075 274.376C-6.99697 273.136 -6.57193 271.549 -5.3314 270.833L36.2902 246.803C37.5307 246.087 39.117 246.512 39.8332 247.752C40.5494 248.993 40.1244 250.579 38.8838 251.295L-2.73775 275.326C-3.97828 276.042 -5.56453 275.617 -6.28075 274.376Z" fill="#C25CE4" fill-opacity="0.4"/>
<path d="M-17.4807 254.978C-18.2621 253.624 -17.7984 251.894 -16.4451 251.112L24.7681 227.318C26.1214 226.537 27.8519 227 28.6332 228.354C29.4145 229.707 28.9508 231.437 27.5975 232.219L-13.6156 256.013C-14.9689 256.794 -16.6994 256.331 -17.4807 254.978Z" fill="#C25CE4" fill-opacity="0.4"/>
<ellipse cx="43.71" cy="245.514" rx="2.5917" ry="2.59366" transform="rotate(-30 43.71 245.514)" fill="#C25CE4" fill-opacity="0.4"/>
<path d="M-74.3645 197.084C-77.5841 191.507 -75.6735 184.377 -70.0971 181.157L-11.8916 147.552C-6.31529 144.333 0.815152 146.243 4.03466 151.82L17.9092 175.851C21.1287 181.428 19.2181 188.558 13.6418 191.778L-40.2044 222.866C-41.3664 223.537 -42.3056 224.534 -42.9049 225.735L-46.6532 233.243C-48.4807 236.903 -53.9331 236.041 -54.5425 231.996C-54.6205 231.478 -54.795 230.979 -55.0569 230.525L-74.3645 197.084Z" fill="white" fill-opacity="0.2"/>
<path d="M-44.3263 208.479C-45.0426 207.239 -44.6175 205.653 -43.377 204.936L-1.75541 180.906C-0.51489 180.19 1.07136 180.615 1.78758 181.855C2.5038 183.096 2.07877 184.682 0.838238 185.398L-40.7833 209.429C-42.0239 210.145 -43.6101 209.72 -44.3263 208.479Z" fill="#C25CE4" fill-opacity="0.4"/>
<ellipse cx="5.66436" cy="179.617" rx="2.5917" ry="2.59366" transform="rotate(-30 5.66436 179.617)" fill="#C25CE4" fill-opacity="0.4"/>
<path d="M145.529 -17.7346C142.31 -23.311 144.22 -30.4414 149.797 -33.6609L208.002 -67.2659C213.578 -70.4854 220.709 -68.5748 223.928 -62.9984L237.803 -38.9669C241.022 -33.3906 239.112 -26.2601 233.535 -23.0406L179.689 8.04745C178.527 8.71837 177.588 9.71617 176.989 10.9167L173.24 18.4246C171.413 22.085 165.961 21.2232 165.351 17.1776C165.273 16.6596 165.099 16.1609 164.837 15.7072L145.529 -17.7346Z" fill="white" fill-opacity="0.2"/>
<path d="M373.803 377.647C370.583 372.071 372.494 364.94 378.07 361.721L436.276 328.116C441.852 324.896 448.982 326.807 452.202 332.383L466.076 356.415C469.296 361.991 467.385 369.121 461.809 372.341L407.963 403.429C406.801 404.1 405.862 405.098 405.262 406.298L401.514 413.806C399.687 417.467 394.234 416.605 393.625 412.559C393.547 412.041 393.372 411.542 393.11 411.089L373.803 377.647Z" fill="white" fill-opacity="0.2"/>
<path d="M335.757 311.75C332.538 306.174 334.448 299.043 340.024 295.824L398.23 262.219C403.806 258.999 410.937 260.91 414.156 266.486L428.031 290.518C431.25 296.094 429.34 303.224 423.763 306.444L369.917 337.532C368.755 338.203 367.816 339.201 367.217 340.401L363.468 347.909C361.641 351.57 356.189 350.708 355.579 346.662C355.501 346.144 355.327 345.645 355.065 345.192L335.757 311.75Z" fill="white" fill-opacity="0.2"/>
<path d="M360.136 313.344C359.42 312.104 359.845 310.517 361.086 309.801L402.707 285.771C403.948 285.055 405.534 285.48 406.25 286.72C406.966 287.961 406.541 289.547 405.301 290.263L363.679 314.294C362.439 315.01 360.852 314.585 360.136 313.344Z" fill="#C25CE4" fill-opacity="0.4"/>
<path d="M365.795 323.146C365.079 321.905 365.504 320.319 366.745 319.603L408.366 295.572C409.607 294.856 411.193 295.281 411.909 296.522C412.625 297.762 412.2 299.349 410.96 300.065L369.338 324.095C368.098 324.811 366.511 324.386 365.795 323.146Z" fill="#C25CE4" fill-opacity="0.4"/>
<path d="M354.595 303.747C353.814 302.394 354.278 300.663 355.631 299.882L396.844 276.087C398.197 275.306 399.928 275.77 400.709 277.123C401.491 278.476 401.027 280.207 399.674 280.988L358.46 304.783C357.107 305.564 355.377 305.1 354.595 303.747Z" fill="#C25CE4" fill-opacity="0.4"/>
<path d="M297.711 245.853C294.492 240.277 296.403 233.146 301.979 229.927L360.184 196.322C365.761 193.102 372.891 195.013 376.111 200.589L389.985 224.621C393.205 230.197 391.294 237.328 385.718 240.547L331.872 271.635C330.71 272.306 329.77 273.304 329.171 274.504L325.423 282.012C323.595 285.673 318.143 284.811 317.534 280.765C317.456 280.247 317.281 279.749 317.019 279.295L297.711 245.853Z" fill="white" fill-opacity="0.2"/>
<path d="M322.091 247.447C321.374 246.207 321.799 244.621 323.04 243.904L364.662 219.874C365.902 219.158 367.488 219.583 368.205 220.823C368.921 222.064 368.496 223.65 367.255 224.366L325.634 248.397C324.393 249.113 322.807 248.688 322.091 247.447Z" fill="#C25CE4" fill-opacity="0.4"/>
<path d="M327.75 257.249C327.033 256.008 327.459 254.422 328.699 253.706L370.321 229.676C371.561 228.959 373.147 229.384 373.864 230.625C374.58 231.865 374.155 233.452 372.914 234.168L331.293 258.198C330.052 258.914 328.466 258.489 327.75 257.249Z" fill="#C25CE4" fill-opacity="0.4"/>
<path d="M316.55 237.85C315.768 236.497 316.232 234.766 317.585 233.985L358.799 210.191C360.152 209.409 361.882 209.873 362.664 211.226C363.445 212.579 362.981 214.31 361.628 215.091L320.415 238.886C319.062 239.667 317.331 239.203 316.55 237.85Z" fill="#C25CE4" fill-opacity="0.4"/>
<ellipse cx="377.74" cy="228.387" rx="2.5917" ry="2.59366" transform="rotate(-30 377.74 228.387)" fill="#C25CE4" fill-opacity="0.4"/>
<path d="M259.666 179.956C256.446 174.38 258.357 167.249 263.933 164.03L322.139 130.425C327.715 127.205 334.846 129.116 338.065 134.692L351.94 158.724C355.159 164.3 353.249 171.431 347.672 174.65L293.826 205.738C292.664 206.409 291.725 207.407 291.125 208.607L287.377 216.115C285.55 219.776 280.097 218.914 279.488 214.868C279.41 214.35 279.235 213.852 278.974 213.398L259.666 179.956Z" fill="white" fill-opacity="0.2"/>
<path d="M284.045 181.55C283.329 180.31 283.754 178.724 284.994 178.007L326.616 153.977C327.856 153.261 329.443 153.686 330.159 154.927C330.875 156.167 330.45 157.753 329.21 158.47L287.588 182.5C286.347 183.216 284.761 182.791 284.045 181.55Z" fill="#C25CE4" fill-opacity="0.4"/>
<path d="M289.704 191.352C288.988 190.111 289.413 188.525 290.653 187.809L332.275 163.779C333.516 163.062 335.102 163.487 335.818 164.728C336.534 165.969 336.109 167.555 334.869 168.271L293.247 192.301C292.007 193.017 290.42 192.592 289.704 191.352Z" fill="#C25CE4" fill-opacity="0.4"/>
<path d="M278.504 171.953C277.723 170.6 278.186 168.869 279.54 168.088L320.753 144.294C322.106 143.512 323.837 143.976 324.618 145.329C325.399 146.683 324.936 148.413 323.582 149.194L282.369 172.989C281.016 173.77 279.285 173.306 278.504 171.953Z" fill="#C25CE4" fill-opacity="0.4"/>
<ellipse cx="339.695" cy="162.49" rx="2.5917" ry="2.59366" transform="rotate(-30 339.695 162.49)" fill="#C25CE4" fill-opacity="0.4"/>
<path d="M221.62 114.059C218.401 108.483 220.311 101.352 225.888 98.1329L284.093 64.528C289.67 61.3085 296.8 63.2191 300.019 68.7954L313.894 92.8269C317.114 98.4033 315.203 105.534 309.627 108.753L255.78 139.841C254.618 140.512 253.679 141.51 253.08 142.711L249.332 150.218C247.504 153.879 242.052 153.017 241.442 148.971C241.364 148.453 241.19 147.955 240.928 147.501L221.62 114.059Z" fill="white" fill-opacity="0.2"/>
<path d="M245.999 115.654C245.283 114.413 245.708 112.827 246.949 112.111L288.57 88.0803C289.811 87.3641 291.397 87.7891 292.113 89.0296C292.83 90.2701 292.405 91.8564 291.164 92.5726L249.542 116.603C248.302 117.319 246.716 116.894 245.999 115.654Z" fill="#C25CE4" fill-opacity="0.4"/>
<path d="M251.658 125.455C250.942 124.214 251.367 122.628 252.608 121.912L294.229 97.8818C295.47 97.1655 297.056 97.5906 297.772 98.8311C298.489 100.072 298.064 101.658 296.823 102.374L255.201 126.404C253.961 127.121 252.375 126.696 251.658 125.455Z" fill="#C25CE4" fill-opacity="0.4"/>
<path d="M240.458 106.056C239.677 104.703 240.141 102.972 241.494 102.191L282.707 78.3967C284.061 77.6154 285.791 78.079 286.572 79.4323C287.354 80.7856 286.89 82.5161 285.537 83.2974L244.324 107.092C242.97 107.873 241.24 107.41 240.458 106.056Z" fill="#C25CE4" fill-opacity="0.4"/>
<ellipse cx="301.649" cy="96.5928" rx="2.5917" ry="2.59366" transform="rotate(-30 301.649 96.5928)" fill="#C25CE4" fill-opacity="0.4"/>
<path d="M183.575 48.1623C180.355 42.586 182.266 35.4555 187.842 32.236L246.048 -1.36892C251.624 -4.58842 258.754 -2.67783 261.974 2.89852L275.848 26.93C279.068 32.5064 277.157 39.6368 271.581 42.8563L217.735 73.9444C216.573 74.6153 215.634 75.6131 215.034 76.8136L211.286 84.3216C209.459 87.982 204.006 87.1201 203.397 83.0745C203.319 82.5566 203.144 82.0578 202.882 81.6042L183.575 48.1623Z" fill="white" fill-opacity="0.2"/>
<path d="M207.954 49.7566C207.238 48.5161 207.663 46.9298 208.903 46.2136L250.525 22.1834C251.765 21.4672 253.352 21.8922 254.068 23.1327C254.784 24.3732 254.359 25.9595 253.118 26.6757L211.497 50.706C210.256 51.4222 208.67 50.9971 207.954 49.7566Z" fill="#C25CE4" fill-opacity="0.4"/>
<path d="M213.613 59.5581C212.897 58.3176 213.322 56.7313 214.562 56.0151L256.184 31.9848C257.424 31.2686 259.011 31.6937 259.727 32.9342C260.443 34.1747 260.018 35.761 258.777 36.4772L217.156 60.5074C215.915 61.2236 214.329 60.7986 213.613 59.5581Z" fill="#C25CE4" fill-opacity="0.4"/>
<path d="M202.413 40.1593C201.632 38.806 202.095 37.0756 203.449 36.2942L244.662 12.4998C246.015 11.7185 247.745 12.1821 248.527 13.5354C249.308 14.8887 248.844 16.6192 247.491 17.4005L206.278 41.195C204.925 41.9763 203.194 41.5126 202.413 40.1593Z" fill="#C25CE4" fill-opacity="0.4"/>
<ellipse cx="263.604" cy="30.6959" rx="2.5917" ry="2.59366" transform="rotate(-30 263.604 30.6959)" fill="#C25CE4" fill-opacity="0.4"/>
</g>
</g>
<defs>
<linearGradient id="paint0_linear_66_186" x1="0" y1="0" x2="375" y2="667" gradientUnits="userSpaceOnUse">
<stop stop-color="#3D8CEC"/>
<stop offset="1" stop-color="#C25CE4"/>
</linearGradient>
<clipPath id="clip0_66_186">
<rect width="375" height="667" fill="white"/>
</clipPath>
<clipPath id="clip1_66_186">
<rect width="689.169" height="689.169" fill="white" transform="translate(-256 190.584) rotate(-30)"/>
</clipPath>
</defs>
</svg>
