<svg width="203" height="136" viewBox="0 0 203 136" fill="none" xmlns="http://www.w3.org/2000/svg">
<path d="M10.8864 10.7256C10.8864 4.802 15.6884 0 21.612 0H192.274C198.198 0 203 4.80199 203 10.7256V97.5648C203 103.488 198.198 108.29 192.274 108.29H45.1677C43.0655 108.29 41.0097 108.908 39.2557 110.067L23.4366 120.517C16.1967 125.3 7.09826 117.933 10.2712 109.856C10.6777 108.822 10.8864 107.72 10.8864 106.608V10.7256Z" fill="white"/>
<path d="M54 53.5C54 50.4624 56.4624 48 59.5 48H161.5C164.538 48 167 50.4624 167 53.5C167 56.5376 164.538 59 161.5 59H59.5C56.4624 59 54 56.5376 54 53.5Z" fill="#C25CE4" fill-opacity="0.13"/>
<path d="M54 77.5C54 74.4624 56.4624 72 59.5 72H161.5C164.538 72 167 74.4624 167 77.5C167 80.5376 164.538 83 161.5 83H59.5C56.4624 83 54 80.5376 54 77.5Z" fill="#C25CE4" fill-opacity="0.13"/>
<path d="M54 30C54 26.6863 56.6863 24 60 24H161C164.314 24 167 26.6863 167 30C167 33.3137 164.314 36 161 36H60C56.6863 36 54 33.3137 54 30Z" fill="#C25CE4" fill-opacity="0.13"/>
<circle cx="176.5" cy="77.5" r="5.5" fill="#C25CE4" fill-opacity="0.13"/>
<path d="M101.73 84.0051C97.9416 84.0051 94.5785 83.3737 91.6406 82.1109C88.7285 80.8224 86.422 78.8895 84.7211 76.3124C83.046 73.7096 82.2085 70.4496 82.2085 66.5324C82.2085 63.2337 82.7883 60.4504 83.948 58.1826C85.1077 55.9148 86.7055 54.0721 88.7414 52.6547C90.7773 51.2373 93.1225 50.1678 95.7769 49.4463C98.4313 48.6989 101.266 48.1964 104.281 47.9387C107.657 47.6294 110.376 47.3073 112.438 46.9722C114.499 46.6115 115.994 46.1089 116.922 45.4646C117.875 44.7946 118.352 43.854 118.352 42.6427V42.4494C118.352 40.4651 117.669 38.9317 116.303 37.8493C114.938 36.767 113.095 36.2258 110.776 36.2258C108.276 36.2258 106.266 36.767 104.745 37.8493C103.225 38.9317 102.258 40.4264 101.846 42.3335L84.4119 41.715C84.9273 38.107 86.2545 34.8857 88.3935 32.0509C90.5583 29.1903 93.5219 26.9482 97.2845 25.3247C101.073 23.6753 105.621 22.8507 110.93 22.8507C114.719 22.8507 118.21 23.3017 121.406 24.2036C124.602 25.0798 127.385 26.3684 129.756 28.0693C132.127 29.7444 133.956 31.8061 135.245 34.2543C136.559 36.7025 137.217 39.4987 137.217 42.6427V83H119.435V74.7275H118.971C117.914 76.7377 116.561 78.4385 114.912 79.8302C113.288 81.2218 111.368 82.2655 109.152 82.9613C106.961 83.6572 104.487 84.0051 101.73 84.0051ZM107.567 71.635C109.603 71.635 111.433 71.2227 113.056 70.398C114.706 69.5733 116.02 68.4394 116.999 66.9963C117.979 65.5273 118.468 63.8264 118.468 61.8936V56.2498C117.927 56.5333 117.27 56.791 116.497 57.0229C115.749 57.2548 114.925 57.4739 114.023 57.6801C113.121 57.8862 112.193 58.0666 111.239 58.2213C110.286 58.3759 109.371 58.5176 108.495 58.6465C106.717 58.93 105.196 59.3681 103.933 59.9608C102.696 60.5535 101.743 61.3267 101.073 62.2802C100.429 63.2079 100.106 64.3161 100.106 65.6046C100.106 67.5632 100.802 69.0579 102.194 70.0888C103.611 71.1196 105.402 71.635 107.567 71.635Z" fill="#C25CE4"/>
</svg>
